<?xml version="1.0" encoding="UTF-8" standalone="no"?>
<svg
   version="1.0"
   viewBox="0 0 400 400"
   id="svg1"
   sodipodi:docname="osaia_logo.svg"
   inkscape:version="1.3.2 (091e20e, 2023-11-25, custom)"
   xmlns:inkscape="http://www.inkscape.org/namespaces/inkscape"
   xmlns:sodipodi="http://sodipodi.sourceforge.net/DTD/sodipodi-0.dtd"
   xmlns="http://www.w3.org/2000/svg"
   xmlns:svg="http://www.w3.org/2000/svg">
  <defs
     id="defs1" />
  <sodipodi:namedview
     id="namedview1"
     pagecolor="#ffffff"
     bordercolor="#000000"
     borderopacity="0.25"
     inkscape:showpageshadow="2"
     inkscape:pageopacity="0.0"
     inkscape:pagecheckerboard="0"
     inkscape:deskcolor="#d1d1d1"
     showgrid="false"
     inkscape:zoom="2.9045061"
     inkscape:cx="200.20616"
     inkscape:cy="157.85816"
     inkscape:window-width="1920"
     inkscape:window-height="1017"
     inkscape:window-x="-8"
     inkscape:window-y="-8"
     inkscape:window-maximized="1"
     inkscape:current-layer="svg1" />
  <metadata
     id="metadata1">www.zixingku.com</metadata>
  <path
     d="m255.02 195.2c-11.09-3.44-22.16-6.86-33.53-10.39-1.82 8.35-4.04 16.46-5.31 24.71-4.11 26.82-14.27 51.32-27.53 74.76-3.67 6.49-6.27 13.57-9.59 20.27-1.12 2.26-2.81 4.3-4.55 6.15-1.01 1.08-2.55 1.9-4 2.28-4.55 1.19-7.46-.95-6.36-5.39 1.69-6.88 3.83-13.77 6.76-20.21 6.11-13.42 12.86-26.55 19.34-39.8.29-.59.53-1.19 1.03-2.29-1.5 0-2.66 0-3.83 0-34.37.04-68.73.1-103.1.08-3.11 0-6.27-.27-9.33-.86-1.77-.34-3.71-1.23-4.96-2.48-3.56-3.54-2.31-7.94 2.52-8.89 3.49-.69 7.08-.83 10.63-1.17 1.56-.15 3.13-.17 4.69-.3 3.26-.27 4.63-1.67 4.62-5.32-.09-33.13.1-66.25.09-99.38 0-23.65 1.2-47.2 5.2-70.54.66-3.84 1.64-7.66 2.82-11.38 3.64-11.5 12.62-18.75 24.77-18.98 9.34-.18 18.89-.23 28 1.51 11.13 2.13 18.2 11.01 18.92 22.41 1.28 20.43 2.3 40.89 2.78 61.35.89 38.37 1.32 76.76 1.93 115.14.01.77 0 1.55 0 2.69 6.15.95 12.17 1.88 18.92 2.93 2.24-8.77 5.03-17.29 6.53-26.03 2.69-15.75 4.55-31.65 6.88-47.47.96-6.52 2.08-13.03 3.4-19.49 1.14-5.59 4.55-9.05 10.71-9.77 2.98 5.41 4.21 11.09 2.93 17.29-1.04 5.03-2.13 10.06-2.79 15.15-.7 5.38-.06 6.8 4.95 8.83 6.4 2.6 13.06 4.56 19.62 6.74 1.37.45 2.83.64 4.25.93 7.04 1.45 7.38 1.33 8.39-5.57 2.13-14.66-2.41-27.83-9.47-40.35-.52-.93-1.58-1.56-2.39-2.33-8.4-8.05-16.68-16.23-25.22-24.12-11.47-10.61-12.35-23.36-8.12-37.3.45-1.5 1.15-2.93 1.49-4.45 1.68-7.56 6.67-11.93 13.52-14.95 10.55-4.66 21.6-7.59 32.97-8.53 13.46-1.11 27-1.42 40.51-1.46 5.51-.02 11.02 1.67 16.54 2.44 2.89.4 4.33 1.76 4.39 4.77.03 1.65.57 3.29 1 5.54-7.71 1.09-15.27 2.65-22.9 3.12-16.17 1-32.39 1.18-48.56 2.21-7.35.47-14.28 3.07-19.48 8.7-4.49 4.87-6.35 10.5-5.85 17.44.62 8.58 3.49 14.62 11.14 19.53 10.89 6.99 19.18 16.9 26.26 27.89 6.12 9.49 6.55 19.95 7.17 30.55.32 5.55.78 11.09 1.21 17.02 8.16-.88 15.92-1.65 23.64-2.69.74-.1 1.74-1.91 1.78-2.96.25-7.04.16-14.1.43-21.14.14-3.66.39-7.4 1.32-10.91.51-1.93 2.22-3.98 3.96-5.07 4.14-2.59 7.24-1.48 8.11 3.22 1.36 7.33 2.84 14.81 2.7 22.2-.27 14.52-1.59 29.03-2.51 43.54-3.01 47.27-16.67 91.96-33.13 135.95-1.27 3.39-4.04 4.16-7.25 4.14-3.2-.02-5.29-1.55-4.87-4.83.75-5.82 1.17-11.85 3.05-17.34 8.26-24.12 15.68-48.46 21.26-73.36 3.49-15.57 4.84-31.36 5.84-47.22.22-3.56.51-7.11.8-11.17-5.02.79-9.7 1.51-14.37 2.27-3.42.56-6.81 1.36-10.25 1.7-2.25.22-3.25 1.08-3.84 3.28-12.34 46.25-28.16 91.38-43.71 136.61-3.05 8.87-5.98 17.79-9.25 26.58-1.23 3.31-3.11 6.43-5.03 9.41-.92 1.43-2.48 2.62-4 3.46-4.39 2.44-7.42.94-8.25-4.03-.92-5.45.3-10.65 2.12-15.78 13.86-39.18 27.98-78.27 41.34-117.62 4.4-12.96 6.81-26.6 10.11-39.93.08-.4-.01-.85-.01-1.54zm-92.62 34.01c0-20.73 0-41.03 0-61.75-17.8 0-35.38 0-53.25 0-.35 20.85-.69 41.59-1.05 62.78 18.37-.34 36.31-.69 54.3-1.03zm-53.26-131.9c17.8-.36 35.1-.71 52.58-1.06.14-1.06.4-1.93.35-2.78-.65-10.49-1.14-20.99-2.12-31.44-.59-6.26-2.61-12.21-6.03-17.61-1.15-1.82-2.42-2.82-4.79-2.9-7.48-.24-14.95-.78-22.43-1.24-5.1-.31-10.39 2.89-12.2 7.72-5.13 13.7-6.92 27.93-6.38 42.48.08 2.2.64 4.39 1.02 6.83zm53.53 53.69c-.96-13.55-1.89-26.5-2.81-39.48-17.16 0-33.76 0-50.4 0v39.48z"
     fill="#010102"
     id="path1"
     style="fill:#ff0000;fill-opacity:1" />
</svg>
